<svg xmlns="http://www.w3.org/2000/svg" viewBox="0 0 64 64" fill="none">
  <circle cx="32" cy="32" r="30" fill="#1E293B" stroke="#10B981" stroke-width="2"/>

  <!-- Hub and spoke pattern (multi-platform) -->
  <circle cx="32" cy="32" r="6" fill="#10B981"/>

  <!-- Spokes to different platforms -->
  <line x1="32" y1="32" x2="32" y2="18" stroke="#10B981" stroke-width="2"/>
  <line x1="32" y1="32" x2="46" y2="32" stroke="#10B981" stroke-width="2"/>
  <line x1="32" y1="32" x2="32" y2="46" stroke="#10B981" stroke-width="2"/>
  <line x1="32" y1="32" x2="18" y2="32" stroke="#10B981" stroke-width="2"/>
  <line x1="32" y1="32" x2="42" y2="22" stroke="#10B981" stroke-width="2"/>
  <line x1="32" y1="32" x2="42" y2="42" stroke="#10B981" stroke-width="2"/>
  <line x1="32" y1="32" x2="22" y2="42" stroke="#10B981" stroke-width="2"/>
  <line x1="32" y1="32" x2="22" y2="22" stroke="#10B981" stroke-width="2"/>

  <!-- Platform nodes -->
  <circle cx="32" cy="18" r="3" fill="#10B981"/>
  <circle cx="46" cy="32" r="3" fill="#10B981"/>
  <circle cx="32" cy="46" r="3" fill="#10B981"/>
  <circle cx="18" cy="32" r="3" fill="#10B981"/>
  <circle cx="42" cy="22" r="3" fill="#10B981"/>
  <circle cx="42" cy="42" r="3" fill="#10B981"/>
  <circle cx="22" cy="42" r="3" fill="#10B981"/>
  <circle cx="22" cy="22" r="3" fill="#10B981"/>
</svg>
